<mxfile host="Electron" modified="2024-01-26T23:13:15.030Z" agent="Mozilla/5.0 (Windows NT 10.0; Win64; x64) AppleWebKit/537.36 (KHTML, like Gecko) draw.io/23.0.2 Chrome/120.0.6099.109 Electron/28.1.0 Safari/537.36" etag="280-2IG2eLZL-8ekUxRw" version="23.0.2" type="device">
  <diagram name="ページ1" id="LE8fIzdrHe0wcv1LTvfw">
    <mxGraphModel dx="866" dy="518" grid="1" gridSize="10" guides="1" tooltips="1" connect="1" arrows="1" fold="1" page="1" pageScale="1" pageWidth="1600" pageHeight="1200" math="0" shadow="0">
      <root>
        <mxCell id="0" />
        <mxCell id="cFaB45KztUIKXS-_cTrr-4" value="背景" style="locked=1;" parent="0" visible="0" />
        <mxCell id="cFaB45KztUIKXS-_cTrr-5" value="" style="rounded=0;whiteSpace=wrap;html=1;strokeWidth=3;" parent="cFaB45KztUIKXS-_cTrr-4" vertex="1">
          <mxGeometry x="1" y="1" width="1595" height="1180" as="geometry" />
        </mxCell>
        <mxCell id="cFaB45KztUIKXS-_cTrr-6" value="" style="rounded=0;whiteSpace=wrap;html=1;fillColor=#B3B3B3;fontColor=#333333;strokeColor=#666666;" parent="cFaB45KztUIKXS-_cTrr-4" vertex="1">
          <mxGeometry width="1595" height="60" as="geometry" />
        </mxCell>
        <mxCell id="cFaB45KztUIKXS-_cTrr-7" value="&lt;font style=&quot;font-size: 48px;&quot;&gt;×&lt;/font&gt;" style="rounded=0;whiteSpace=wrap;html=1;" parent="cFaB45KztUIKXS-_cTrr-4" vertex="1">
          <mxGeometry x="1550" y="10" width="40" height="40" as="geometry" />
        </mxCell>
        <mxCell id="cFaB45KztUIKXS-_cTrr-8" value="" style="rounded=0;whiteSpace=wrap;html=1;" parent="cFaB45KztUIKXS-_cTrr-4" vertex="1">
          <mxGeometry x="830" y="670" width="120" height="60" as="geometry" />
        </mxCell>
        <mxCell id="cFaB45KztUIKXS-_cTrr-9" value="ウインドウ" style="locked=1;" parent="0" />
        <mxCell id="cFaB45KztUIKXS-_cTrr-10" value="" style="rounded=0;whiteSpace=wrap;html=1;strokeWidth=3;" parent="cFaB45KztUIKXS-_cTrr-9" vertex="1">
          <mxGeometry x="1" y="1" width="1595" height="2389" as="geometry" />
        </mxCell>
        <mxCell id="cFaB45KztUIKXS-_cTrr-11" value="" style="rounded=0;whiteSpace=wrap;html=1;fillColor=#B3B3B3;fontColor=#333333;strokeColor=#666666;" parent="cFaB45KztUIKXS-_cTrr-9" vertex="1">
          <mxGeometry width="1595" height="60" as="geometry" />
        </mxCell>
        <mxCell id="cFaB45KztUIKXS-_cTrr-12" value="&lt;font style=&quot;font-size: 48px;&quot;&gt;×&lt;/font&gt;" style="rounded=0;whiteSpace=wrap;html=1;" parent="cFaB45KztUIKXS-_cTrr-9" vertex="1">
          <mxGeometry x="1550" y="10" width="40" height="40" as="geometry" />
        </mxCell>
        <mxCell id="cFaB45KztUIKXS-_cTrr-14" value="名称未設定レイヤ" style="" parent="0" />
        <mxCell id="dvQE-fAi0W3OkAwydJa--139" value="&lt;span style=&quot;font-size: 30px;&quot;&gt;支部の有無&lt;/span&gt;" style="rounded=0;whiteSpace=wrap;html=1;align=right;dashed=1;dashPattern=8 8;verticalAlign=bottom;" parent="cFaB45KztUIKXS-_cTrr-14" vertex="1">
          <mxGeometry x="87" y="2096" width="290" height="46" as="geometry" />
        </mxCell>
        <mxCell id="dvQE-fAi0W3OkAwydJa--140" value="&lt;font style=&quot;font-size: 84px;&quot;&gt;○&lt;/font&gt;" style="text;html=1;strokeColor=none;fillColor=none;align=center;verticalAlign=middle;whiteSpace=wrap;rounded=0;fontSize=60;" parent="cFaB45KztUIKXS-_cTrr-14" vertex="1">
          <mxGeometry x="397" y="2104" width="60" height="30" as="geometry" />
        </mxCell>
        <mxCell id="dvQE-fAi0W3OkAwydJa--141" value="&lt;font style=&quot;font-size: 48px;&quot;&gt;●&lt;/font&gt;" style="text;html=1;strokeColor=none;fillColor=none;align=center;verticalAlign=middle;whiteSpace=wrap;rounded=0;fontSize=48;" parent="cFaB45KztUIKXS-_cTrr-14" vertex="1">
          <mxGeometry x="397" y="2106" width="60" height="30" as="geometry" />
        </mxCell>
        <mxCell id="dvQE-fAi0W3OkAwydJa--142" value="&lt;span style=&quot;font-size: 30px;&quot;&gt;有&lt;br&gt;&lt;/span&gt;" style="text;html=1;strokeColor=none;fillColor=none;align=left;verticalAlign=middle;whiteSpace=wrap;rounded=0;" parent="cFaB45KztUIKXS-_cTrr-14" vertex="1">
          <mxGeometry x="456" y="2097" width="275" height="60" as="geometry" />
        </mxCell>
        <mxCell id="dvQE-fAi0W3OkAwydJa--143" value="&lt;font style=&quot;font-size: 84px;&quot;&gt;○&lt;/font&gt;" style="text;html=1;strokeColor=none;fillColor=none;align=center;verticalAlign=middle;whiteSpace=wrap;rounded=0;fontSize=60;" parent="cFaB45KztUIKXS-_cTrr-14" vertex="1">
          <mxGeometry x="506" y="2106" width="60" height="30" as="geometry" />
        </mxCell>
        <mxCell id="dvQE-fAi0W3OkAwydJa--144" value="&lt;span style=&quot;font-size: 30px;&quot;&gt;無&lt;br&gt;&lt;/span&gt;" style="text;html=1;strokeColor=none;fillColor=none;align=left;verticalAlign=middle;whiteSpace=wrap;rounded=0;" parent="cFaB45KztUIKXS-_cTrr-14" vertex="1">
          <mxGeometry x="567" y="2103" width="275" height="56" as="geometry" />
        </mxCell>
        <mxCell id="dvQE-fAi0W3OkAwydJa--145" value="&lt;font style=&quot;font-size: 30px;&quot;&gt;課税上の優遇措置の適用関係&lt;/font&gt;" style="rounded=0;whiteSpace=wrap;html=1;align=right;dashed=1;dashPattern=8 8;verticalAlign=bottom;" parent="cFaB45KztUIKXS-_cTrr-14" vertex="1">
          <mxGeometry x="87" y="2162" width="290" height="80" as="geometry" />
        </mxCell>
        <mxCell id="dvQE-fAi0W3OkAwydJa--146" value="&lt;font style=&quot;font-size: 84px;&quot;&gt;○&lt;/font&gt;" style="text;html=1;strokeColor=none;fillColor=none;align=center;verticalAlign=middle;whiteSpace=wrap;rounded=0;fontSize=60;" parent="cFaB45KztUIKXS-_cTrr-14" vertex="1">
          <mxGeometry x="397" y="2184" width="60" height="30" as="geometry" />
        </mxCell>
        <mxCell id="dvQE-fAi0W3OkAwydJa--147" value="&lt;font style=&quot;font-size: 48px;&quot;&gt;●&lt;/font&gt;" style="text;html=1;strokeColor=none;fillColor=none;align=center;verticalAlign=middle;whiteSpace=wrap;rounded=0;fontSize=48;" parent="cFaB45KztUIKXS-_cTrr-14" vertex="1">
          <mxGeometry x="397" y="2185" width="60" height="30" as="geometry" />
        </mxCell>
        <mxCell id="dvQE-fAi0W3OkAwydJa--148" value="&lt;font style=&quot;font-size: 84px;&quot;&gt;○&lt;/font&gt;" style="text;html=1;strokeColor=none;fillColor=none;align=center;verticalAlign=middle;whiteSpace=wrap;rounded=0;fontSize=60;" parent="cFaB45KztUIKXS-_cTrr-14" vertex="1">
          <mxGeometry x="507" y="2184" width="60" height="30" as="geometry" />
        </mxCell>
        <mxCell id="dvQE-fAi0W3OkAwydJa--149" value="&lt;span style=&quot;font-size: 30px;&quot;&gt;無&lt;br&gt;&lt;/span&gt;" style="text;html=1;strokeColor=none;fillColor=none;align=left;verticalAlign=middle;whiteSpace=wrap;rounded=0;" parent="cFaB45KztUIKXS-_cTrr-14" vertex="1">
          <mxGeometry x="567" y="2175" width="275" height="60" as="geometry" />
        </mxCell>
        <mxCell id="dvQE-fAi0W3OkAwydJa--150" value="&lt;span style=&quot;font-size: 30px;&quot;&gt;有&lt;br&gt;&lt;/span&gt;" style="text;html=1;strokeColor=none;fillColor=none;align=left;verticalAlign=middle;whiteSpace=wrap;rounded=0;" parent="cFaB45KztUIKXS-_cTrr-14" vertex="1">
          <mxGeometry x="457" y="2175" width="275" height="60" as="geometry" />
        </mxCell>
        <mxCell id="dvQE-fAi0W3OkAwydJa--151" value="&lt;span style=&quot;font-size: 30px;&quot;&gt;衆議院または参議院議員の現職または候補者自身が代表者である&lt;/span&gt;" style="rounded=0;whiteSpace=wrap;html=1;align=left;dashed=1;dashPattern=8 8;verticalAlign=bottom;" parent="cFaB45KztUIKXS-_cTrr-14" vertex="1">
          <mxGeometry x="463" y="146" width="1073" height="46" as="geometry" />
        </mxCell>
        <mxCell id="dvQE-fAi0W3OkAwydJa--152" value="&lt;span style=&quot;font-size: 30px;&quot;&gt;&lt;br&gt;衆議院または参議院議員の現職または候補者を支援する(代表者が異なる)&lt;/span&gt;" style="rounded=0;whiteSpace=wrap;html=1;align=left;dashed=1;dashPattern=8 8;verticalAlign=bottom;" parent="cFaB45KztUIKXS-_cTrr-14" vertex="1">
          <mxGeometry x="463" y="226" width="1073" height="40" as="geometry" />
        </mxCell>
        <mxCell id="dvQE-fAi0W3OkAwydJa--153" value="&lt;span style=&quot;font-size: 30px;&quot;&gt;(候補者・現職の集まりである)政党&lt;/span&gt;" style="rounded=0;whiteSpace=wrap;html=1;align=left;dashed=1;dashPattern=8 8;verticalAlign=bottom;" parent="cFaB45KztUIKXS-_cTrr-14" vertex="1">
          <mxGeometry x="463" y="296" width="1073" height="46" as="geometry" />
        </mxCell>
        <mxCell id="dvQE-fAi0W3OkAwydJa--154" value="&lt;span style=&quot;font-size: 30px;&quot;&gt;政党支部&lt;/span&gt;" style="rounded=0;whiteSpace=wrap;html=1;align=left;dashed=1;dashPattern=8 8;verticalAlign=bottom;" parent="cFaB45KztUIKXS-_cTrr-14" vertex="1">
          <mxGeometry x="463" y="376" width="303" height="46" as="geometry" />
        </mxCell>
        <mxCell id="dvQE-fAi0W3OkAwydJa--155" value="&lt;font style=&quot;font-size: 84px;&quot;&gt;○&lt;/font&gt;" style="text;html=1;strokeColor=none;fillColor=none;align=center;verticalAlign=middle;whiteSpace=wrap;rounded=0;fontSize=60;" parent="cFaB45KztUIKXS-_cTrr-14" vertex="1">
          <mxGeometry x="400" y="154" width="60" height="30" as="geometry" />
        </mxCell>
        <mxCell id="dvQE-fAi0W3OkAwydJa--156" value="&lt;font style=&quot;font-size: 48px;&quot;&gt;●&lt;/font&gt;" style="text;html=1;strokeColor=none;fillColor=none;align=center;verticalAlign=middle;whiteSpace=wrap;rounded=0;fontSize=48;" parent="cFaB45KztUIKXS-_cTrr-14" vertex="1">
          <mxGeometry x="400" y="156" width="60" height="30" as="geometry" />
        </mxCell>
        <mxCell id="dvQE-fAi0W3OkAwydJa--157" value="&lt;font style=&quot;font-size: 84px;&quot;&gt;○&lt;/font&gt;" style="text;html=1;strokeColor=none;fillColor=none;align=center;verticalAlign=middle;whiteSpace=wrap;rounded=0;fontSize=60;" parent="cFaB45KztUIKXS-_cTrr-14" vertex="1">
          <mxGeometry x="400" y="224" width="60" height="30" as="geometry" />
        </mxCell>
        <mxCell id="dvQE-fAi0W3OkAwydJa--158" value="&lt;font style=&quot;font-size: 84px;&quot;&gt;○&lt;/font&gt;" style="text;html=1;strokeColor=none;fillColor=none;align=center;verticalAlign=middle;whiteSpace=wrap;rounded=0;fontSize=60;" parent="cFaB45KztUIKXS-_cTrr-14" vertex="1">
          <mxGeometry x="400" y="304" width="60" height="30" as="geometry" />
        </mxCell>
        <mxCell id="dvQE-fAi0W3OkAwydJa--159" value="&lt;font style=&quot;font-size: 84px;&quot;&gt;○&lt;/font&gt;" style="text;html=1;strokeColor=none;fillColor=none;align=center;verticalAlign=middle;whiteSpace=wrap;rounded=0;fontSize=60;" parent="cFaB45KztUIKXS-_cTrr-14" vertex="1">
          <mxGeometry x="400" y="375" width="60" height="30" as="geometry" />
        </mxCell>
        <mxCell id="dvQE-fAi0W3OkAwydJa--160" value="&lt;span style=&quot;font-size: 30px;&quot;&gt;▼本部である政党を選択&lt;/span&gt;" style="rounded=0;whiteSpace=wrap;html=1;align=left;fillColor=#FFFFFF;" parent="cFaB45KztUIKXS-_cTrr-14" vertex="1">
          <mxGeometry x="786" y="376" width="390" height="48" as="geometry" />
        </mxCell>
        <mxCell id="dvQE-fAi0W3OkAwydJa--161" value="&lt;font style=&quot;font-size: 30px;&quot;&gt;選択肢がないので自由記述&lt;/font&gt;" style="rounded=0;whiteSpace=wrap;html=1;align=left;" parent="cFaB45KztUIKXS-_cTrr-14" vertex="1">
          <mxGeometry x="1187" y="378" width="380" height="48" as="geometry" />
        </mxCell>
        <mxCell id="dvQE-fAi0W3OkAwydJa--162" value="&lt;span style=&quot;font-size: 30px;&quot;&gt;地方自治体首長、衆議院または参議院以外の議会の現職または候補者&lt;/span&gt;" style="rounded=0;whiteSpace=wrap;html=1;align=left;dashed=1;dashPattern=8 8;verticalAlign=bottom;" parent="cFaB45KztUIKXS-_cTrr-14" vertex="1">
          <mxGeometry x="463" y="449" width="1013" height="46" as="geometry" />
        </mxCell>
        <mxCell id="dvQE-fAi0W3OkAwydJa--163" value="&lt;font style=&quot;font-size: 84px;&quot;&gt;○&lt;/font&gt;" style="text;html=1;strokeColor=none;fillColor=none;align=center;verticalAlign=middle;whiteSpace=wrap;rounded=0;fontSize=60;" parent="cFaB45KztUIKXS-_cTrr-14" vertex="1">
          <mxGeometry x="400" y="454" width="60" height="30" as="geometry" />
        </mxCell>
        <mxCell id="dvQE-fAi0W3OkAwydJa--164" value="&lt;span style=&quot;font-size: 30px;&quot;&gt;候補者・現職は存在しないが&lt;br&gt;特定パーティの収益が10,000,000円以上ある場合&lt;/span&gt;" style="rounded=0;whiteSpace=wrap;html=1;align=left;dashed=1;dashPattern=8 8;verticalAlign=bottom;" parent="cFaB45KztUIKXS-_cTrr-14" vertex="1">
          <mxGeometry x="466" y="504" width="1072" height="79" as="geometry" />
        </mxCell>
        <mxCell id="dvQE-fAi0W3OkAwydJa--165" value="&lt;font style=&quot;font-size: 84px;&quot;&gt;○&lt;/font&gt;" style="text;html=1;strokeColor=none;fillColor=none;align=center;verticalAlign=middle;whiteSpace=wrap;rounded=0;fontSize=60;" parent="cFaB45KztUIKXS-_cTrr-14" vertex="1">
          <mxGeometry x="400" y="524" width="60" height="30" as="geometry" />
        </mxCell>
        <mxCell id="dvQE-fAi0W3OkAwydJa--166" value="&lt;span style=&quot;font-size: 30px;&quot;&gt;その他の政治団体&lt;/span&gt;" style="rounded=0;whiteSpace=wrap;html=1;align=left;dashed=1;dashPattern=8 8;verticalAlign=bottom;" parent="cFaB45KztUIKXS-_cTrr-14" vertex="1">
          <mxGeometry x="464" y="597" width="1073" height="46" as="geometry" />
        </mxCell>
        <mxCell id="dvQE-fAi0W3OkAwydJa--167" value="&lt;font style=&quot;font-size: 84px;&quot;&gt;○&lt;/font&gt;" style="text;html=1;strokeColor=none;fillColor=none;align=center;verticalAlign=middle;whiteSpace=wrap;rounded=0;fontSize=60;" parent="cFaB45KztUIKXS-_cTrr-14" vertex="1">
          <mxGeometry x="401" y="594" width="60" height="30" as="geometry" />
        </mxCell>
        <mxCell id="dvQE-fAi0W3OkAwydJa--168" value="&lt;span style=&quot;font-size: 30px;&quot;&gt;政治団体支部&lt;/span&gt;" style="rounded=0;whiteSpace=wrap;html=1;align=left;dashed=1;dashPattern=8 8;verticalAlign=bottom;" parent="cFaB45KztUIKXS-_cTrr-14" vertex="1">
          <mxGeometry x="463" y="666" width="303" height="46" as="geometry" />
        </mxCell>
        <mxCell id="dvQE-fAi0W3OkAwydJa--169" value="&lt;font style=&quot;font-size: 84px;&quot;&gt;○&lt;/font&gt;" style="text;html=1;strokeColor=none;fillColor=none;align=center;verticalAlign=middle;whiteSpace=wrap;rounded=0;fontSize=60;" parent="cFaB45KztUIKXS-_cTrr-14" vertex="1">
          <mxGeometry x="400" y="665" width="60" height="30" as="geometry" />
        </mxCell>
        <mxCell id="dvQE-fAi0W3OkAwydJa--170" value="&lt;span style=&quot;font-size: 30px;&quot;&gt;▼本部の政治団体を選択&lt;/span&gt;" style="rounded=0;whiteSpace=wrap;html=1;align=left;fillColor=#FFFFFF;" parent="cFaB45KztUIKXS-_cTrr-14" vertex="1">
          <mxGeometry x="786" y="666" width="390" height="48" as="geometry" />
        </mxCell>
        <mxCell id="dvQE-fAi0W3OkAwydJa--171" value="&lt;font style=&quot;font-size: 30px;&quot;&gt;選択肢がないので自由記述&lt;/font&gt;" style="rounded=0;whiteSpace=wrap;html=1;align=left;" parent="cFaB45KztUIKXS-_cTrr-14" vertex="1">
          <mxGeometry x="1186" y="665" width="380" height="48" as="geometry" />
        </mxCell>
        <mxCell id="dvQE-fAi0W3OkAwydJa--172" value="&lt;span style=&quot;font-size: 30px;&quot;&gt;&lt;b&gt;政治団体の特性&lt;/b&gt;&lt;/span&gt;" style="rounded=0;whiteSpace=wrap;html=1;align=left;dashed=1;dashPattern=8 8;verticalAlign=bottom;" parent="cFaB45KztUIKXS-_cTrr-14" vertex="1">
          <mxGeometry x="27" y="83" width="520" height="46" as="geometry" />
        </mxCell>
        <mxCell id="dvQE-fAi0W3OkAwydJa--173" value="&lt;span style=&quot;font-size: 30px;&quot;&gt;政治団体区分&lt;/span&gt;" style="rounded=0;whiteSpace=wrap;html=1;align=left;dashed=1;dashPattern=8 8;verticalAlign=bottom;" parent="cFaB45KztUIKXS-_cTrr-14" vertex="1">
          <mxGeometry x="37" y="155" width="310" height="46" as="geometry" />
        </mxCell>
        <mxCell id="dvQE-fAi0W3OkAwydJa--174" value="&lt;font style=&quot;font-size: 30px;&quot;&gt;政治資金規正法第18条の２&lt;br/&gt;第１項の規定による政治団体&lt;/font&gt;" style="rounded=0;whiteSpace=wrap;html=1;align=left;fillColor=#CCCCCC;fontColor=#333333;strokeColor=#000000;verticalAlign=top;" parent="cFaB45KztUIKXS-_cTrr-14" vertex="1">
          <mxGeometry x="37" y="222" width="290" height="184" as="geometry" />
        </mxCell>
        <mxCell id="dvQE-fAi0W3OkAwydJa--175" value="&lt;span style=&quot;font-size: 30px;&quot;&gt;国会議員団体区分&lt;/span&gt;" style="rounded=0;whiteSpace=wrap;html=1;align=left;dashed=1;dashPattern=8 8;verticalAlign=bottom;" parent="cFaB45KztUIKXS-_cTrr-14" vertex="1">
          <mxGeometry x="37" y="445" width="310" height="46" as="geometry" />
        </mxCell>
        <mxCell id="dvQE-fAi0W3OkAwydJa--176" value="&lt;span style=&quot;font-size: 30px;&quot;&gt;該当しません&lt;/span&gt;" style="rounded=0;whiteSpace=wrap;html=1;align=left;fillColor=#CCCCCC;fontColor=#333333;strokeColor=#000000;verticalAlign=top;" parent="cFaB45KztUIKXS-_cTrr-14" vertex="1">
          <mxGeometry x="37" y="512" width="290" height="184" as="geometry" />
        </mxCell>
        <mxCell id="dvQE-fAi0W3OkAwydJa--177" value="&lt;span style=&quot;font-size: 30px;&quot;&gt;国会議員の所属または&lt;br&gt;候補者の所属予定&lt;br&gt;&lt;/span&gt;" style="rounded=0;whiteSpace=wrap;html=1;align=right;dashed=1;dashPattern=8 8;verticalAlign=bottom;" parent="cFaB45KztUIKXS-_cTrr-14" vertex="1">
          <mxGeometry x="37" y="876" width="340" height="76" as="geometry" />
        </mxCell>
        <mxCell id="dvQE-fAi0W3OkAwydJa--178" value="&lt;font style=&quot;font-size: 84px;&quot;&gt;○&lt;/font&gt;" style="text;html=1;strokeColor=none;fillColor=none;align=center;verticalAlign=middle;whiteSpace=wrap;rounded=0;fontSize=60;" parent="cFaB45KztUIKXS-_cTrr-14" vertex="1">
          <mxGeometry x="407" y="886" width="60" height="30" as="geometry" />
        </mxCell>
        <mxCell id="dvQE-fAi0W3OkAwydJa--179" value="&lt;font style=&quot;font-size: 48px;&quot;&gt;●&lt;/font&gt;" style="text;html=1;strokeColor=none;fillColor=none;align=center;verticalAlign=middle;whiteSpace=wrap;rounded=0;fontSize=48;" parent="cFaB45KztUIKXS-_cTrr-14" vertex="1">
          <mxGeometry x="407" y="888" width="60" height="30" as="geometry" />
        </mxCell>
        <mxCell id="dvQE-fAi0W3OkAwydJa--180" value="&lt;font style=&quot;font-size: 84px;&quot;&gt;○&lt;/font&gt;" style="text;html=1;strokeColor=none;fillColor=none;align=center;verticalAlign=middle;whiteSpace=wrap;rounded=0;fontSize=60;" parent="cFaB45KztUIKXS-_cTrr-14" vertex="1">
          <mxGeometry x="637" y="886" width="60" height="30" as="geometry" />
        </mxCell>
        <mxCell id="dvQE-fAi0W3OkAwydJa--181" value="&lt;font style=&quot;font-size: 30px;&quot;&gt;参議院現職&lt;/font&gt;" style="text;html=1;strokeColor=none;fillColor=none;align=left;verticalAlign=middle;whiteSpace=wrap;rounded=0;" parent="cFaB45KztUIKXS-_cTrr-14" vertex="1">
          <mxGeometry x="692" y="878" width="275" height="60" as="geometry" />
        </mxCell>
        <mxCell id="dvQE-fAi0W3OkAwydJa--182" value="&lt;span style=&quot;font-size: 30px;&quot;&gt;衆議院現職&lt;br&gt;&lt;/span&gt;" style="text;html=1;strokeColor=none;fillColor=none;align=left;verticalAlign=middle;whiteSpace=wrap;rounded=0;" parent="cFaB45KztUIKXS-_cTrr-14" vertex="1">
          <mxGeometry x="457" y="877" width="220" height="60" as="geometry" />
        </mxCell>
        <mxCell id="dvQE-fAi0W3OkAwydJa--183" value="&lt;span style=&quot;font-size: 30px;&quot;&gt;議員(候補者)名前&lt;/span&gt;" style="rounded=0;whiteSpace=wrap;html=1;align=right;dashed=1;dashPattern=8 8;verticalAlign=bottom;" parent="cFaB45KztUIKXS-_cTrr-14" vertex="1">
          <mxGeometry x="37" y="975" width="340" height="46" as="geometry" />
        </mxCell>
        <mxCell id="dvQE-fAi0W3OkAwydJa--184" value="&lt;span style=&quot;font-size: 30px;&quot;&gt;名前ふりがな&lt;/span&gt;" style="rounded=0;whiteSpace=wrap;html=1;align=right;dashed=1;dashPattern=8 8;verticalAlign=bottom;" parent="cFaB45KztUIKXS-_cTrr-14" vertex="1">
          <mxGeometry x="37" y="1045" width="340" height="46" as="geometry" />
        </mxCell>
        <mxCell id="dvQE-fAi0W3OkAwydJa--185" value="&lt;font style=&quot;font-size: 30px;&quot;&gt;主たる活動区域&lt;/font&gt;" style="rounded=0;whiteSpace=wrap;html=1;align=right;dashed=1;dashPattern=8 8;verticalAlign=bottom;" parent="cFaB45KztUIKXS-_cTrr-14" vertex="1">
          <mxGeometry x="43" y="2282" width="340" height="35" as="geometry" />
        </mxCell>
        <mxCell id="dvQE-fAi0W3OkAwydJa--186" value="&lt;font style=&quot;font-size: 84px;&quot;&gt;○&lt;/font&gt;" style="text;html=1;strokeColor=none;fillColor=none;align=center;verticalAlign=middle;whiteSpace=wrap;rounded=0;fontSize=60;" parent="cFaB45KztUIKXS-_cTrr-14" vertex="1">
          <mxGeometry x="395" y="2271" width="60" height="30" as="geometry" />
        </mxCell>
        <mxCell id="dvQE-fAi0W3OkAwydJa--187" value="&lt;font style=&quot;font-size: 48px;&quot;&gt;●&lt;/font&gt;" style="text;html=1;strokeColor=none;fillColor=none;align=center;verticalAlign=middle;whiteSpace=wrap;rounded=0;fontSize=48;" parent="cFaB45KztUIKXS-_cTrr-14" vertex="1">
          <mxGeometry x="395" y="2273" width="60" height="30" as="geometry" />
        </mxCell>
        <mxCell id="dvQE-fAi0W3OkAwydJa--188" value="&lt;font style=&quot;font-size: 84px;&quot;&gt;○&lt;/font&gt;" style="text;html=1;strokeColor=none;fillColor=none;align=center;verticalAlign=middle;whiteSpace=wrap;rounded=0;fontSize=60;" parent="cFaB45KztUIKXS-_cTrr-14" vertex="1">
          <mxGeometry x="815" y="2271" width="60" height="30" as="geometry" />
        </mxCell>
        <mxCell id="dvQE-fAi0W3OkAwydJa--189" value="&lt;font style=&quot;font-size: 30px;&quot;&gt;同一の都道府県の区域内&lt;/font&gt;" style="text;html=1;strokeColor=none;fillColor=none;align=left;verticalAlign=middle;whiteSpace=wrap;rounded=0;" parent="cFaB45KztUIKXS-_cTrr-14" vertex="1">
          <mxGeometry x="870" y="2263" width="347" height="60" as="geometry" />
        </mxCell>
        <mxCell id="dvQE-fAi0W3OkAwydJa--190" value="&lt;span style=&quot;font-size: 30px;&quot;&gt;2以上の都道府県の区域等&lt;br&gt;&lt;/span&gt;" style="text;html=1;strokeColor=none;fillColor=none;align=left;verticalAlign=middle;whiteSpace=wrap;rounded=0;" parent="cFaB45KztUIKXS-_cTrr-14" vertex="1">
          <mxGeometry x="445" y="2262" width="382" height="60" as="geometry" />
        </mxCell>
        <mxCell id="dvQE-fAi0W3OkAwydJa--191" value="&lt;span style=&quot;font-size: 30px;&quot;&gt;政治団体&lt;/span&gt;" style="rounded=0;whiteSpace=wrap;html=1;align=left;" parent="cFaB45KztUIKXS-_cTrr-14" vertex="1">
          <mxGeometry x="407" y="974" width="250" height="48" as="geometry" />
        </mxCell>
        <mxCell id="dvQE-fAi0W3OkAwydJa--192" value="&lt;span style=&quot;font-size: 30px;&quot;&gt;太郎&lt;/span&gt;" style="rounded=0;whiteSpace=wrap;html=1;align=left;" parent="cFaB45KztUIKXS-_cTrr-14" vertex="1">
          <mxGeometry x="737" y="974" width="250" height="48" as="geometry" />
        </mxCell>
        <mxCell id="dvQE-fAi0W3OkAwydJa--193" value="&lt;span style=&quot;font-size: 30px;&quot;&gt;(姓)&lt;/span&gt;" style="rounded=0;whiteSpace=wrap;html=1;align=right;dashed=1;dashPattern=8 8;verticalAlign=bottom;" parent="cFaB45KztUIKXS-_cTrr-14" vertex="1">
          <mxGeometry x="661" y="975" width="50" height="46" as="geometry" />
        </mxCell>
        <mxCell id="dvQE-fAi0W3OkAwydJa--194" value="&lt;span style=&quot;font-size: 30px;&quot;&gt;(名)&lt;/span&gt;" style="rounded=0;whiteSpace=wrap;html=1;align=right;dashed=1;dashPattern=8 8;verticalAlign=bottom;" parent="cFaB45KztUIKXS-_cTrr-14" vertex="1">
          <mxGeometry x="991" y="975" width="50" height="46" as="geometry" />
        </mxCell>
        <mxCell id="dvQE-fAi0W3OkAwydJa--195" value="" style="rounded=0;whiteSpace=wrap;html=1;align=left;" parent="cFaB45KztUIKXS-_cTrr-14" vertex="1">
          <mxGeometry x="1057" y="974" width="250" height="48" as="geometry" />
        </mxCell>
        <mxCell id="dvQE-fAi0W3OkAwydJa--196" value="&lt;span style=&quot;font-size: 30px;&quot;&gt;(ミドルネーム)&lt;/span&gt;" style="rounded=0;whiteSpace=wrap;html=1;align=right;dashed=1;dashPattern=8 8;verticalAlign=bottom;" parent="cFaB45KztUIKXS-_cTrr-14" vertex="1">
          <mxGeometry x="1311" y="975" width="206" height="46" as="geometry" />
        </mxCell>
        <mxCell id="dvQE-fAi0W3OkAwydJa--197" value="&lt;span style=&quot;font-size: 30px;&quot;&gt;政治団体&lt;/span&gt;" style="rounded=0;whiteSpace=wrap;html=1;align=left;" parent="cFaB45KztUIKXS-_cTrr-14" vertex="1">
          <mxGeometry x="407" y="1044" width="250" height="48" as="geometry" />
        </mxCell>
        <mxCell id="dvQE-fAi0W3OkAwydJa--198" value="&lt;span style=&quot;font-size: 30px;&quot;&gt;太郎&lt;/span&gt;" style="rounded=0;whiteSpace=wrap;html=1;align=left;" parent="cFaB45KztUIKXS-_cTrr-14" vertex="1">
          <mxGeometry x="737" y="1044" width="250" height="48" as="geometry" />
        </mxCell>
        <mxCell id="dvQE-fAi0W3OkAwydJa--199" value="&lt;span style=&quot;font-size: 30px;&quot;&gt;(姓)&lt;/span&gt;" style="rounded=0;whiteSpace=wrap;html=1;align=right;dashed=1;dashPattern=8 8;verticalAlign=bottom;" parent="cFaB45KztUIKXS-_cTrr-14" vertex="1">
          <mxGeometry x="661" y="1045" width="50" height="46" as="geometry" />
        </mxCell>
        <mxCell id="dvQE-fAi0W3OkAwydJa--200" value="&lt;span style=&quot;font-size: 30px;&quot;&gt;(名)&lt;/span&gt;" style="rounded=0;whiteSpace=wrap;html=1;align=right;dashed=1;dashPattern=8 8;verticalAlign=bottom;" parent="cFaB45KztUIKXS-_cTrr-14" vertex="1">
          <mxGeometry x="991" y="1045" width="50" height="46" as="geometry" />
        </mxCell>
        <mxCell id="dvQE-fAi0W3OkAwydJa--201" value="" style="rounded=0;whiteSpace=wrap;html=1;align=left;" parent="cFaB45KztUIKXS-_cTrr-14" vertex="1">
          <mxGeometry x="1057" y="1044" width="250" height="48" as="geometry" />
        </mxCell>
        <mxCell id="dvQE-fAi0W3OkAwydJa--202" value="&lt;span style=&quot;font-size: 30px;&quot;&gt;(ミドルネーム)&lt;/span&gt;" style="rounded=0;whiteSpace=wrap;html=1;align=right;dashed=1;dashPattern=8 8;verticalAlign=bottom;" parent="cFaB45KztUIKXS-_cTrr-14" vertex="1">
          <mxGeometry x="1311" y="1045" width="206" height="46" as="geometry" />
        </mxCell>
        <mxCell id="dvQE-fAi0W3OkAwydJa--203" value="&lt;font style=&quot;font-size: 84px;&quot;&gt;○&lt;/font&gt;" style="text;html=1;strokeColor=none;fillColor=none;align=center;verticalAlign=middle;whiteSpace=wrap;rounded=0;fontSize=60;" parent="cFaB45KztUIKXS-_cTrr-14" vertex="1">
          <mxGeometry x="857" y="886" width="60" height="30" as="geometry" />
        </mxCell>
        <mxCell id="dvQE-fAi0W3OkAwydJa--204" value="&lt;font style=&quot;font-size: 84px;&quot;&gt;○&lt;/font&gt;" style="text;html=1;strokeColor=none;fillColor=none;align=center;verticalAlign=middle;whiteSpace=wrap;rounded=0;fontSize=60;" parent="cFaB45KztUIKXS-_cTrr-14" vertex="1">
          <mxGeometry x="1087" y="886" width="60" height="30" as="geometry" />
        </mxCell>
        <mxCell id="dvQE-fAi0W3OkAwydJa--205" value="&lt;font style=&quot;font-size: 30px;&quot;&gt;参議院候補者&lt;/font&gt;" style="text;html=1;strokeColor=none;fillColor=none;align=left;verticalAlign=middle;whiteSpace=wrap;rounded=0;" parent="cFaB45KztUIKXS-_cTrr-14" vertex="1">
          <mxGeometry x="1142" y="878" width="275" height="60" as="geometry" />
        </mxCell>
        <mxCell id="dvQE-fAi0W3OkAwydJa--206" value="&lt;span style=&quot;font-size: 30px;&quot;&gt;衆議院候補者&lt;br&gt;&lt;/span&gt;" style="text;html=1;strokeColor=none;fillColor=none;align=left;verticalAlign=middle;whiteSpace=wrap;rounded=0;" parent="cFaB45KztUIKXS-_cTrr-14" vertex="1">
          <mxGeometry x="907" y="877" width="220" height="60" as="geometry" />
        </mxCell>
        <mxCell id="dvQE-fAi0W3OkAwydJa--207" value="&lt;span style=&quot;font-size: 30px;&quot;&gt;&lt;b&gt;国会議員現職・候補者1人目&lt;/b&gt;&lt;/span&gt;" style="rounded=0;whiteSpace=wrap;html=1;align=left;dashed=1;dashPattern=8 8;verticalAlign=bottom;" parent="cFaB45KztUIKXS-_cTrr-14" vertex="1">
          <mxGeometry x="27" y="813" width="520" height="46" as="geometry" />
        </mxCell>
        <mxCell id="dvQE-fAi0W3OkAwydJa--208" value="&lt;span style=&quot;font-size: 30px;&quot;&gt;国会議員の所属または&lt;br&gt;候補者の所属予定&lt;br&gt;&lt;/span&gt;" style="rounded=0;whiteSpace=wrap;html=1;align=right;dashed=1;dashPattern=8 8;verticalAlign=bottom;" parent="cFaB45KztUIKXS-_cTrr-14" vertex="1">
          <mxGeometry x="37" y="1180" width="340" height="76" as="geometry" />
        </mxCell>
        <mxCell id="dvQE-fAi0W3OkAwydJa--209" value="&lt;font style=&quot;font-size: 84px;&quot;&gt;○&lt;/font&gt;" style="text;html=1;strokeColor=none;fillColor=none;align=center;verticalAlign=middle;whiteSpace=wrap;rounded=0;fontSize=60;" parent="cFaB45KztUIKXS-_cTrr-14" vertex="1">
          <mxGeometry x="407" y="1190" width="60" height="30" as="geometry" />
        </mxCell>
        <mxCell id="dvQE-fAi0W3OkAwydJa--210" value="&lt;font style=&quot;font-size: 48px;&quot;&gt;●&lt;/font&gt;" style="text;html=1;strokeColor=none;fillColor=none;align=center;verticalAlign=middle;whiteSpace=wrap;rounded=0;fontSize=48;" parent="cFaB45KztUIKXS-_cTrr-14" vertex="1">
          <mxGeometry x="407" y="1192" width="60" height="30" as="geometry" />
        </mxCell>
        <mxCell id="dvQE-fAi0W3OkAwydJa--211" value="&lt;font style=&quot;font-size: 84px;&quot;&gt;○&lt;/font&gt;" style="text;html=1;strokeColor=none;fillColor=none;align=center;verticalAlign=middle;whiteSpace=wrap;rounded=0;fontSize=60;" parent="cFaB45KztUIKXS-_cTrr-14" vertex="1">
          <mxGeometry x="637" y="1190" width="60" height="30" as="geometry" />
        </mxCell>
        <mxCell id="dvQE-fAi0W3OkAwydJa--212" value="&lt;font style=&quot;font-size: 30px;&quot;&gt;参議院現職&lt;/font&gt;" style="text;html=1;strokeColor=none;fillColor=none;align=left;verticalAlign=middle;whiteSpace=wrap;rounded=0;" parent="cFaB45KztUIKXS-_cTrr-14" vertex="1">
          <mxGeometry x="692" y="1182" width="275" height="60" as="geometry" />
        </mxCell>
        <mxCell id="dvQE-fAi0W3OkAwydJa--213" value="&lt;span style=&quot;font-size: 30px;&quot;&gt;衆議院現職&lt;br&gt;&lt;/span&gt;" style="text;html=1;strokeColor=none;fillColor=none;align=left;verticalAlign=middle;whiteSpace=wrap;rounded=0;" parent="cFaB45KztUIKXS-_cTrr-14" vertex="1">
          <mxGeometry x="457" y="1181" width="220" height="60" as="geometry" />
        </mxCell>
        <mxCell id="dvQE-fAi0W3OkAwydJa--214" value="&lt;span style=&quot;font-size: 30px;&quot;&gt;議員(候補者)名前&lt;/span&gt;" style="rounded=0;whiteSpace=wrap;html=1;align=right;dashed=1;dashPattern=8 8;verticalAlign=bottom;" parent="cFaB45KztUIKXS-_cTrr-14" vertex="1">
          <mxGeometry x="37" y="1279" width="340" height="46" as="geometry" />
        </mxCell>
        <mxCell id="dvQE-fAi0W3OkAwydJa--215" value="&lt;span style=&quot;font-size: 30px;&quot;&gt;名前ふりがな&lt;/span&gt;" style="rounded=0;whiteSpace=wrap;html=1;align=right;dashed=1;dashPattern=8 8;verticalAlign=bottom;" parent="cFaB45KztUIKXS-_cTrr-14" vertex="1">
          <mxGeometry x="37" y="1349" width="340" height="46" as="geometry" />
        </mxCell>
        <mxCell id="dvQE-fAi0W3OkAwydJa--216" value="&lt;span style=&quot;font-size: 30px;&quot;&gt;政治団体&lt;/span&gt;" style="rounded=0;whiteSpace=wrap;html=1;align=left;" parent="cFaB45KztUIKXS-_cTrr-14" vertex="1">
          <mxGeometry x="407" y="1278" width="250" height="48" as="geometry" />
        </mxCell>
        <mxCell id="dvQE-fAi0W3OkAwydJa--217" value="&lt;span style=&quot;font-size: 30px;&quot;&gt;太郎&lt;/span&gt;" style="rounded=0;whiteSpace=wrap;html=1;align=left;" parent="cFaB45KztUIKXS-_cTrr-14" vertex="1">
          <mxGeometry x="737" y="1278" width="250" height="48" as="geometry" />
        </mxCell>
        <mxCell id="dvQE-fAi0W3OkAwydJa--218" value="&lt;span style=&quot;font-size: 30px;&quot;&gt;(姓)&lt;/span&gt;" style="rounded=0;whiteSpace=wrap;html=1;align=right;dashed=1;dashPattern=8 8;verticalAlign=bottom;" parent="cFaB45KztUIKXS-_cTrr-14" vertex="1">
          <mxGeometry x="661" y="1279" width="50" height="46" as="geometry" />
        </mxCell>
        <mxCell id="dvQE-fAi0W3OkAwydJa--219" value="&lt;span style=&quot;font-size: 30px;&quot;&gt;(名)&lt;/span&gt;" style="rounded=0;whiteSpace=wrap;html=1;align=right;dashed=1;dashPattern=8 8;verticalAlign=bottom;" parent="cFaB45KztUIKXS-_cTrr-14" vertex="1">
          <mxGeometry x="991" y="1279" width="50" height="46" as="geometry" />
        </mxCell>
        <mxCell id="dvQE-fAi0W3OkAwydJa--220" value="" style="rounded=0;whiteSpace=wrap;html=1;align=left;" parent="cFaB45KztUIKXS-_cTrr-14" vertex="1">
          <mxGeometry x="1057" y="1278" width="250" height="48" as="geometry" />
        </mxCell>
        <mxCell id="dvQE-fAi0W3OkAwydJa--221" value="&lt;span style=&quot;font-size: 30px;&quot;&gt;(ミドルネーム)&lt;/span&gt;" style="rounded=0;whiteSpace=wrap;html=1;align=right;dashed=1;dashPattern=8 8;verticalAlign=bottom;" parent="cFaB45KztUIKXS-_cTrr-14" vertex="1">
          <mxGeometry x="1311" y="1279" width="206" height="46" as="geometry" />
        </mxCell>
        <mxCell id="dvQE-fAi0W3OkAwydJa--222" value="&lt;span style=&quot;font-size: 30px;&quot;&gt;政治団体&lt;/span&gt;" style="rounded=0;whiteSpace=wrap;html=1;align=left;" parent="cFaB45KztUIKXS-_cTrr-14" vertex="1">
          <mxGeometry x="407" y="1348" width="250" height="48" as="geometry" />
        </mxCell>
        <mxCell id="dvQE-fAi0W3OkAwydJa--223" value="&lt;span style=&quot;font-size: 30px;&quot;&gt;太郎&lt;/span&gt;" style="rounded=0;whiteSpace=wrap;html=1;align=left;" parent="cFaB45KztUIKXS-_cTrr-14" vertex="1">
          <mxGeometry x="737" y="1348" width="250" height="48" as="geometry" />
        </mxCell>
        <mxCell id="dvQE-fAi0W3OkAwydJa--224" value="&lt;span style=&quot;font-size: 30px;&quot;&gt;(姓)&lt;/span&gt;" style="rounded=0;whiteSpace=wrap;html=1;align=right;dashed=1;dashPattern=8 8;verticalAlign=bottom;" parent="cFaB45KztUIKXS-_cTrr-14" vertex="1">
          <mxGeometry x="661" y="1349" width="50" height="46" as="geometry" />
        </mxCell>
        <mxCell id="dvQE-fAi0W3OkAwydJa--225" value="&lt;span style=&quot;font-size: 30px;&quot;&gt;(名)&lt;/span&gt;" style="rounded=0;whiteSpace=wrap;html=1;align=right;dashed=1;dashPattern=8 8;verticalAlign=bottom;" parent="cFaB45KztUIKXS-_cTrr-14" vertex="1">
          <mxGeometry x="991" y="1349" width="50" height="46" as="geometry" />
        </mxCell>
        <mxCell id="dvQE-fAi0W3OkAwydJa--226" value="" style="rounded=0;whiteSpace=wrap;html=1;align=left;" parent="cFaB45KztUIKXS-_cTrr-14" vertex="1">
          <mxGeometry x="1057" y="1348" width="250" height="48" as="geometry" />
        </mxCell>
        <mxCell id="dvQE-fAi0W3OkAwydJa--227" value="&lt;span style=&quot;font-size: 30px;&quot;&gt;(ミドルネーム)&lt;/span&gt;" style="rounded=0;whiteSpace=wrap;html=1;align=right;dashed=1;dashPattern=8 8;verticalAlign=bottom;" parent="cFaB45KztUIKXS-_cTrr-14" vertex="1">
          <mxGeometry x="1311" y="1349" width="206" height="46" as="geometry" />
        </mxCell>
        <mxCell id="dvQE-fAi0W3OkAwydJa--228" value="&lt;font style=&quot;font-size: 84px;&quot;&gt;○&lt;/font&gt;" style="text;html=1;strokeColor=none;fillColor=none;align=center;verticalAlign=middle;whiteSpace=wrap;rounded=0;fontSize=60;" parent="cFaB45KztUIKXS-_cTrr-14" vertex="1">
          <mxGeometry x="857" y="1190" width="60" height="30" as="geometry" />
        </mxCell>
        <mxCell id="dvQE-fAi0W3OkAwydJa--229" value="&lt;font style=&quot;font-size: 84px;&quot;&gt;○&lt;/font&gt;" style="text;html=1;strokeColor=none;fillColor=none;align=center;verticalAlign=middle;whiteSpace=wrap;rounded=0;fontSize=60;" parent="cFaB45KztUIKXS-_cTrr-14" vertex="1">
          <mxGeometry x="1087" y="1190" width="60" height="30" as="geometry" />
        </mxCell>
        <mxCell id="dvQE-fAi0W3OkAwydJa--230" value="&lt;font style=&quot;font-size: 30px;&quot;&gt;参議院候補者&lt;/font&gt;" style="text;html=1;strokeColor=none;fillColor=none;align=left;verticalAlign=middle;whiteSpace=wrap;rounded=0;" parent="cFaB45KztUIKXS-_cTrr-14" vertex="1">
          <mxGeometry x="1142" y="1182" width="275" height="60" as="geometry" />
        </mxCell>
        <mxCell id="dvQE-fAi0W3OkAwydJa--231" value="&lt;span style=&quot;font-size: 30px;&quot;&gt;衆議院候補者&lt;br&gt;&lt;/span&gt;" style="text;html=1;strokeColor=none;fillColor=none;align=left;verticalAlign=middle;whiteSpace=wrap;rounded=0;" parent="cFaB45KztUIKXS-_cTrr-14" vertex="1">
          <mxGeometry x="907" y="1181" width="220" height="60" as="geometry" />
        </mxCell>
        <mxCell id="dvQE-fAi0W3OkAwydJa--232" value="&lt;span style=&quot;font-size: 30px;&quot;&gt;&lt;b&gt;国会議員現職・候補者2人目&lt;/b&gt;&lt;/span&gt;" style="rounded=0;whiteSpace=wrap;html=1;align=left;dashed=1;dashPattern=8 8;verticalAlign=bottom;" parent="cFaB45KztUIKXS-_cTrr-14" vertex="1">
          <mxGeometry x="27" y="1117" width="520" height="46" as="geometry" />
        </mxCell>
        <mxCell id="dvQE-fAi0W3OkAwydJa--233" value="&lt;span style=&quot;font-size: 30px;&quot;&gt;国会議員の所属または&lt;br&gt;候補者の所属予定&lt;br&gt;&lt;/span&gt;" style="rounded=0;whiteSpace=wrap;html=1;align=right;dashed=1;dashPattern=8 8;verticalAlign=bottom;" parent="cFaB45KztUIKXS-_cTrr-14" vertex="1">
          <mxGeometry x="37" y="1476" width="340" height="76" as="geometry" />
        </mxCell>
        <mxCell id="dvQE-fAi0W3OkAwydJa--234" value="&lt;font style=&quot;font-size: 84px;&quot;&gt;○&lt;/font&gt;" style="text;html=1;strokeColor=none;fillColor=none;align=center;verticalAlign=middle;whiteSpace=wrap;rounded=0;fontSize=60;" parent="cFaB45KztUIKXS-_cTrr-14" vertex="1">
          <mxGeometry x="407" y="1486" width="60" height="30" as="geometry" />
        </mxCell>
        <mxCell id="dvQE-fAi0W3OkAwydJa--235" value="&lt;font style=&quot;font-size: 48px;&quot;&gt;●&lt;/font&gt;" style="text;html=1;strokeColor=none;fillColor=none;align=center;verticalAlign=middle;whiteSpace=wrap;rounded=0;fontSize=48;" parent="cFaB45KztUIKXS-_cTrr-14" vertex="1">
          <mxGeometry x="407" y="1488" width="60" height="30" as="geometry" />
        </mxCell>
        <mxCell id="dvQE-fAi0W3OkAwydJa--236" value="&lt;font style=&quot;font-size: 84px;&quot;&gt;○&lt;/font&gt;" style="text;html=1;strokeColor=none;fillColor=none;align=center;verticalAlign=middle;whiteSpace=wrap;rounded=0;fontSize=60;" parent="cFaB45KztUIKXS-_cTrr-14" vertex="1">
          <mxGeometry x="637" y="1486" width="60" height="30" as="geometry" />
        </mxCell>
        <mxCell id="dvQE-fAi0W3OkAwydJa--237" value="&lt;font style=&quot;font-size: 30px;&quot;&gt;参議院現職&lt;/font&gt;" style="text;html=1;strokeColor=none;fillColor=none;align=left;verticalAlign=middle;whiteSpace=wrap;rounded=0;" parent="cFaB45KztUIKXS-_cTrr-14" vertex="1">
          <mxGeometry x="692" y="1478" width="275" height="60" as="geometry" />
        </mxCell>
        <mxCell id="dvQE-fAi0W3OkAwydJa--238" value="&lt;span style=&quot;font-size: 30px;&quot;&gt;衆議院現職&lt;br&gt;&lt;/span&gt;" style="text;html=1;strokeColor=none;fillColor=none;align=left;verticalAlign=middle;whiteSpace=wrap;rounded=0;" parent="cFaB45KztUIKXS-_cTrr-14" vertex="1">
          <mxGeometry x="457" y="1477" width="220" height="60" as="geometry" />
        </mxCell>
        <mxCell id="dvQE-fAi0W3OkAwydJa--239" value="&lt;span style=&quot;font-size: 30px;&quot;&gt;議員(候補者)名前&lt;/span&gt;" style="rounded=0;whiteSpace=wrap;html=1;align=right;dashed=1;dashPattern=8 8;verticalAlign=bottom;" parent="cFaB45KztUIKXS-_cTrr-14" vertex="1">
          <mxGeometry x="37" y="1575" width="340" height="46" as="geometry" />
        </mxCell>
        <mxCell id="dvQE-fAi0W3OkAwydJa--240" value="&lt;span style=&quot;font-size: 30px;&quot;&gt;名前ふりがな&lt;/span&gt;" style="rounded=0;whiteSpace=wrap;html=1;align=right;dashed=1;dashPattern=8 8;verticalAlign=bottom;" parent="cFaB45KztUIKXS-_cTrr-14" vertex="1">
          <mxGeometry x="37" y="1645" width="340" height="46" as="geometry" />
        </mxCell>
        <mxCell id="dvQE-fAi0W3OkAwydJa--241" value="&lt;span style=&quot;font-size: 30px;&quot;&gt;政治団体&lt;/span&gt;" style="rounded=0;whiteSpace=wrap;html=1;align=left;" parent="cFaB45KztUIKXS-_cTrr-14" vertex="1">
          <mxGeometry x="407" y="1574" width="250" height="48" as="geometry" />
        </mxCell>
        <mxCell id="dvQE-fAi0W3OkAwydJa--242" value="&lt;span style=&quot;font-size: 30px;&quot;&gt;太郎&lt;/span&gt;" style="rounded=0;whiteSpace=wrap;html=1;align=left;" parent="cFaB45KztUIKXS-_cTrr-14" vertex="1">
          <mxGeometry x="737" y="1574" width="250" height="48" as="geometry" />
        </mxCell>
        <mxCell id="dvQE-fAi0W3OkAwydJa--243" value="&lt;span style=&quot;font-size: 30px;&quot;&gt;(姓)&lt;/span&gt;" style="rounded=0;whiteSpace=wrap;html=1;align=right;dashed=1;dashPattern=8 8;verticalAlign=bottom;" parent="cFaB45KztUIKXS-_cTrr-14" vertex="1">
          <mxGeometry x="661" y="1575" width="50" height="46" as="geometry" />
        </mxCell>
        <mxCell id="dvQE-fAi0W3OkAwydJa--244" value="&lt;span style=&quot;font-size: 30px;&quot;&gt;(名)&lt;/span&gt;" style="rounded=0;whiteSpace=wrap;html=1;align=right;dashed=1;dashPattern=8 8;verticalAlign=bottom;" parent="cFaB45KztUIKXS-_cTrr-14" vertex="1">
          <mxGeometry x="991" y="1575" width="50" height="46" as="geometry" />
        </mxCell>
        <mxCell id="dvQE-fAi0W3OkAwydJa--245" value="" style="rounded=0;whiteSpace=wrap;html=1;align=left;" parent="cFaB45KztUIKXS-_cTrr-14" vertex="1">
          <mxGeometry x="1057" y="1574" width="250" height="48" as="geometry" />
        </mxCell>
        <mxCell id="dvQE-fAi0W3OkAwydJa--246" value="&lt;span style=&quot;font-size: 30px;&quot;&gt;(ミドルネーム)&lt;/span&gt;" style="rounded=0;whiteSpace=wrap;html=1;align=right;dashed=1;dashPattern=8 8;verticalAlign=bottom;" parent="cFaB45KztUIKXS-_cTrr-14" vertex="1">
          <mxGeometry x="1311" y="1575" width="206" height="46" as="geometry" />
        </mxCell>
        <mxCell id="dvQE-fAi0W3OkAwydJa--247" value="&lt;span style=&quot;font-size: 30px;&quot;&gt;せいじだんたい&lt;/span&gt;" style="rounded=0;whiteSpace=wrap;html=1;align=left;" parent="cFaB45KztUIKXS-_cTrr-14" vertex="1">
          <mxGeometry x="407" y="1644" width="250" height="48" as="geometry" />
        </mxCell>
        <mxCell id="dvQE-fAi0W3OkAwydJa--248" value="&lt;span style=&quot;font-size: 30px;&quot;&gt;たろう&lt;/span&gt;" style="rounded=0;whiteSpace=wrap;html=1;align=left;" parent="cFaB45KztUIKXS-_cTrr-14" vertex="1">
          <mxGeometry x="737" y="1644" width="250" height="48" as="geometry" />
        </mxCell>
        <mxCell id="dvQE-fAi0W3OkAwydJa--249" value="&lt;span style=&quot;font-size: 30px;&quot;&gt;(姓)&lt;/span&gt;" style="rounded=0;whiteSpace=wrap;html=1;align=right;dashed=1;dashPattern=8 8;verticalAlign=bottom;" parent="cFaB45KztUIKXS-_cTrr-14" vertex="1">
          <mxGeometry x="661" y="1645" width="50" height="46" as="geometry" />
        </mxCell>
        <mxCell id="dvQE-fAi0W3OkAwydJa--250" value="&lt;span style=&quot;font-size: 30px;&quot;&gt;(名)&lt;/span&gt;" style="rounded=0;whiteSpace=wrap;html=1;align=right;dashed=1;dashPattern=8 8;verticalAlign=bottom;" parent="cFaB45KztUIKXS-_cTrr-14" vertex="1">
          <mxGeometry x="991" y="1645" width="50" height="46" as="geometry" />
        </mxCell>
        <mxCell id="dvQE-fAi0W3OkAwydJa--251" value="" style="rounded=0;whiteSpace=wrap;html=1;align=left;" parent="cFaB45KztUIKXS-_cTrr-14" vertex="1">
          <mxGeometry x="1057" y="1644" width="250" height="48" as="geometry" />
        </mxCell>
        <mxCell id="dvQE-fAi0W3OkAwydJa--252" value="&lt;span style=&quot;font-size: 30px;&quot;&gt;(ミドルネーム)&lt;/span&gt;" style="rounded=0;whiteSpace=wrap;html=1;align=right;dashed=1;dashPattern=8 8;verticalAlign=bottom;" parent="cFaB45KztUIKXS-_cTrr-14" vertex="1">
          <mxGeometry x="1311" y="1645" width="206" height="46" as="geometry" />
        </mxCell>
        <mxCell id="dvQE-fAi0W3OkAwydJa--253" value="&lt;font style=&quot;font-size: 84px;&quot;&gt;○&lt;/font&gt;" style="text;html=1;strokeColor=none;fillColor=none;align=center;verticalAlign=middle;whiteSpace=wrap;rounded=0;fontSize=60;" parent="cFaB45KztUIKXS-_cTrr-14" vertex="1">
          <mxGeometry x="857" y="1486" width="60" height="30" as="geometry" />
        </mxCell>
        <mxCell id="dvQE-fAi0W3OkAwydJa--254" value="&lt;font style=&quot;font-size: 84px;&quot;&gt;○&lt;/font&gt;" style="text;html=1;strokeColor=none;fillColor=none;align=center;verticalAlign=middle;whiteSpace=wrap;rounded=0;fontSize=60;" parent="cFaB45KztUIKXS-_cTrr-14" vertex="1">
          <mxGeometry x="1087" y="1486" width="60" height="30" as="geometry" />
        </mxCell>
        <mxCell id="dvQE-fAi0W3OkAwydJa--255" value="&lt;font style=&quot;font-size: 30px;&quot;&gt;参議院候補者&lt;/font&gt;" style="text;html=1;strokeColor=none;fillColor=none;align=left;verticalAlign=middle;whiteSpace=wrap;rounded=0;" parent="cFaB45KztUIKXS-_cTrr-14" vertex="1">
          <mxGeometry x="1142" y="1478" width="275" height="60" as="geometry" />
        </mxCell>
        <mxCell id="dvQE-fAi0W3OkAwydJa--256" value="&lt;span style=&quot;font-size: 30px;&quot;&gt;衆議院候補者&lt;br&gt;&lt;/span&gt;" style="text;html=1;strokeColor=none;fillColor=none;align=left;verticalAlign=middle;whiteSpace=wrap;rounded=0;" parent="cFaB45KztUIKXS-_cTrr-14" vertex="1">
          <mxGeometry x="907" y="1477" width="220" height="60" as="geometry" />
        </mxCell>
        <mxCell id="dvQE-fAi0W3OkAwydJa--257" value="&lt;span style=&quot;font-size: 30px;&quot;&gt;&lt;b&gt;国会議員現職・候補者3人目&lt;/b&gt;&lt;/span&gt;" style="rounded=0;whiteSpace=wrap;html=1;align=left;dashed=1;dashPattern=8 8;verticalAlign=bottom;" parent="cFaB45KztUIKXS-_cTrr-14" vertex="1">
          <mxGeometry x="27" y="1413" width="520" height="46" as="geometry" />
        </mxCell>
        <mxCell id="dvQE-fAi0W3OkAwydJa--258" value="&lt;span style=&quot;font-size: 30px;&quot;&gt;&lt;b&gt;資金管理団体の指定の期間&lt;/b&gt;&lt;/span&gt;" style="rounded=0;whiteSpace=wrap;html=1;align=left;dashed=1;dashPattern=8 8;verticalAlign=bottom;" parent="cFaB45KztUIKXS-_cTrr-14" vertex="1">
          <mxGeometry x="27" y="1723" width="520" height="46" as="geometry" />
        </mxCell>
        <mxCell id="dvQE-fAi0W3OkAwydJa--259" value="&lt;font style=&quot;font-size: 30px;&quot;&gt;20221201&lt;/font&gt;" style="rounded=0;whiteSpace=wrap;html=1;align=right;" parent="cFaB45KztUIKXS-_cTrr-14" vertex="1">
          <mxGeometry x="407" y="1784" width="250" height="48" as="geometry" />
        </mxCell>
        <mxCell id="dvQE-fAi0W3OkAwydJa--260" value="&lt;span style=&quot;font-size: 30px;&quot;&gt;から&lt;/span&gt;" style="rounded=0;whiteSpace=wrap;html=1;align=right;dashed=1;dashPattern=8 8;verticalAlign=bottom;" parent="cFaB45KztUIKXS-_cTrr-14" vertex="1">
          <mxGeometry x="671" y="1785" width="96" height="46" as="geometry" />
        </mxCell>
        <mxCell id="dvQE-fAi0W3OkAwydJa--261" value="&lt;font style=&quot;font-size: 30px;&quot;&gt;20221201&lt;/font&gt;" style="rounded=0;whiteSpace=wrap;html=1;align=right;" parent="cFaB45KztUIKXS-_cTrr-14" vertex="1">
          <mxGeometry x="787" y="1784" width="250" height="48" as="geometry" />
        </mxCell>
        <mxCell id="dvQE-fAi0W3OkAwydJa--262" value="&lt;span style=&quot;font-size: 30px;&quot;&gt;まで&lt;/span&gt;" style="rounded=0;whiteSpace=wrap;html=1;align=right;dashed=1;dashPattern=8 8;verticalAlign=bottom;" parent="cFaB45KztUIKXS-_cTrr-14" vertex="1">
          <mxGeometry x="1051" y="1785" width="96" height="46" as="geometry" />
        </mxCell>
        <mxCell id="dvQE-fAi0W3OkAwydJa--263" value="&lt;font style=&quot;font-size: 30px;&quot;&gt;20221201&lt;/font&gt;" style="rounded=0;whiteSpace=wrap;html=1;align=right;" parent="cFaB45KztUIKXS-_cTrr-14" vertex="1">
          <mxGeometry x="407" y="1845" width="250" height="48" as="geometry" />
        </mxCell>
        <mxCell id="dvQE-fAi0W3OkAwydJa--264" value="&lt;span style=&quot;font-size: 30px;&quot;&gt;から&lt;/span&gt;" style="rounded=0;whiteSpace=wrap;html=1;align=right;dashed=1;dashPattern=8 8;verticalAlign=bottom;" parent="cFaB45KztUIKXS-_cTrr-14" vertex="1">
          <mxGeometry x="671" y="1846" width="96" height="46" as="geometry" />
        </mxCell>
        <mxCell id="dvQE-fAi0W3OkAwydJa--265" value="&lt;font style=&quot;font-size: 30px;&quot;&gt;20221201&lt;/font&gt;" style="rounded=0;whiteSpace=wrap;html=1;align=right;" parent="cFaB45KztUIKXS-_cTrr-14" vertex="1">
          <mxGeometry x="787" y="1845" width="250" height="48" as="geometry" />
        </mxCell>
        <mxCell id="dvQE-fAi0W3OkAwydJa--266" value="&lt;span style=&quot;font-size: 30px;&quot;&gt;まで&lt;/span&gt;" style="rounded=0;whiteSpace=wrap;html=1;align=right;dashed=1;dashPattern=8 8;verticalAlign=bottom;" parent="cFaB45KztUIKXS-_cTrr-14" vertex="1">
          <mxGeometry x="1051" y="1846" width="96" height="46" as="geometry" />
        </mxCell>
        <mxCell id="dvQE-fAi0W3OkAwydJa--267" value="&lt;font style=&quot;font-size: 30px;&quot;&gt;▼2期間&amp;nbsp;&lt;/font&gt;" style="rounded=0;whiteSpace=wrap;html=1;align=left;" parent="cFaB45KztUIKXS-_cTrr-14" vertex="1">
          <mxGeometry x="1117" y="1724" width="250" height="48" as="geometry" />
        </mxCell>
        <mxCell id="dvQE-fAi0W3OkAwydJa--268" value="&lt;span style=&quot;font-size: 30px;&quot;&gt;&lt;b&gt;国会議員政治団体に関する特例期間&lt;/b&gt;&lt;/span&gt;" style="rounded=0;whiteSpace=wrap;html=1;align=left;dashed=1;dashPattern=8 8;verticalAlign=bottom;" parent="cFaB45KztUIKXS-_cTrr-14" vertex="1">
          <mxGeometry x="27" y="1903" width="520" height="46" as="geometry" />
        </mxCell>
        <mxCell id="dvQE-fAi0W3OkAwydJa--269" value="&lt;font style=&quot;font-size: 30px;&quot;&gt;20221201&lt;/font&gt;" style="rounded=0;whiteSpace=wrap;html=1;align=right;" parent="cFaB45KztUIKXS-_cTrr-14" vertex="1">
          <mxGeometry x="407" y="1964" width="250" height="48" as="geometry" />
        </mxCell>
        <mxCell id="dvQE-fAi0W3OkAwydJa--270" value="&lt;span style=&quot;font-size: 30px;&quot;&gt;から&lt;/span&gt;" style="rounded=0;whiteSpace=wrap;html=1;align=right;dashed=1;dashPattern=8 8;verticalAlign=bottom;" parent="cFaB45KztUIKXS-_cTrr-14" vertex="1">
          <mxGeometry x="671" y="1965" width="96" height="46" as="geometry" />
        </mxCell>
        <mxCell id="dvQE-fAi0W3OkAwydJa--271" value="&lt;font style=&quot;font-size: 30px;&quot;&gt;20221201&lt;/font&gt;" style="rounded=0;whiteSpace=wrap;html=1;align=right;" parent="cFaB45KztUIKXS-_cTrr-14" vertex="1">
          <mxGeometry x="787" y="1964" width="250" height="48" as="geometry" />
        </mxCell>
        <mxCell id="dvQE-fAi0W3OkAwydJa--272" value="&lt;span style=&quot;font-size: 30px;&quot;&gt;まで&lt;/span&gt;" style="rounded=0;whiteSpace=wrap;html=1;align=right;dashed=1;dashPattern=8 8;verticalAlign=bottom;" parent="cFaB45KztUIKXS-_cTrr-14" vertex="1">
          <mxGeometry x="1051" y="1965" width="96" height="46" as="geometry" />
        </mxCell>
        <mxCell id="dvQE-fAi0W3OkAwydJa--273" value="&lt;font style=&quot;font-size: 30px;&quot;&gt;20221201&lt;/font&gt;" style="rounded=0;whiteSpace=wrap;html=1;align=right;" parent="cFaB45KztUIKXS-_cTrr-14" vertex="1">
          <mxGeometry x="407" y="2025" width="250" height="48" as="geometry" />
        </mxCell>
        <mxCell id="dvQE-fAi0W3OkAwydJa--274" value="&lt;span style=&quot;font-size: 30px;&quot;&gt;から&lt;/span&gt;" style="rounded=0;whiteSpace=wrap;html=1;align=right;dashed=1;dashPattern=8 8;verticalAlign=bottom;" parent="cFaB45KztUIKXS-_cTrr-14" vertex="1">
          <mxGeometry x="671" y="2026" width="96" height="46" as="geometry" />
        </mxCell>
        <mxCell id="dvQE-fAi0W3OkAwydJa--275" value="&lt;font style=&quot;font-size: 30px;&quot;&gt;20221201&lt;/font&gt;" style="rounded=0;whiteSpace=wrap;html=1;align=right;" parent="cFaB45KztUIKXS-_cTrr-14" vertex="1">
          <mxGeometry x="787" y="2025" width="250" height="48" as="geometry" />
        </mxCell>
        <mxCell id="dvQE-fAi0W3OkAwydJa--276" value="&lt;span style=&quot;font-size: 30px;&quot;&gt;まで&lt;/span&gt;" style="rounded=0;whiteSpace=wrap;html=1;align=right;dashed=1;dashPattern=8 8;verticalAlign=bottom;" parent="cFaB45KztUIKXS-_cTrr-14" vertex="1">
          <mxGeometry x="1051" y="2026" width="96" height="46" as="geometry" />
        </mxCell>
        <mxCell id="dvQE-fAi0W3OkAwydJa--277" value="&lt;font style=&quot;font-size: 30px;&quot;&gt;▼2期間&amp;nbsp;&lt;/font&gt;" style="rounded=0;whiteSpace=wrap;html=1;align=left;" parent="cFaB45KztUIKXS-_cTrr-14" vertex="1">
          <mxGeometry x="1115" y="1904" width="250" height="48" as="geometry" />
        </mxCell>
        <mxCell id="P5LAc7TfLYMjkGzUfEua-0" value="&lt;span style=&quot;font-size: 30px;&quot;&gt;政党に紐づく政治資金管理団体&lt;/span&gt;" style="rounded=0;whiteSpace=wrap;html=1;align=left;dashed=1;dashPattern=8 8;verticalAlign=bottom;" parent="cFaB45KztUIKXS-_cTrr-14" vertex="1">
          <mxGeometry x="460" y="737" width="1073" height="46" as="geometry" />
        </mxCell>
        <mxCell id="P5LAc7TfLYMjkGzUfEua-1" value="&lt;font style=&quot;font-size: 84px;&quot;&gt;○&lt;/font&gt;" style="text;html=1;strokeColor=none;fillColor=none;align=center;verticalAlign=middle;whiteSpace=wrap;rounded=0;fontSize=60;" parent="cFaB45KztUIKXS-_cTrr-14" vertex="1">
          <mxGeometry x="398" y="742" width="60" height="30" as="geometry" />
        </mxCell>
      </root>
    </mxGraphModel>
  </diagram>
</mxfile>
